<svg width="1440" height="1024" viewBox="0 0 1440 1024" fill="none" xmlns="http://www.w3.org/2000/svg">
<g clip-path="url(#clip0_4_2)">
<g opacity="0.2">
<line x1="24.4995" y1="-209" x2="24.4994" y2="1232" stroke="#121212" stroke-opacity="0.25"/>
<line x1="131.5" y1="-209" x2="131.5" y2="1232" stroke="#121212" stroke-opacity="0.25"/>
<line x1="238.5" y1="-209" x2="238.5" y2="1232" stroke="#121212" stroke-opacity="0.25"/>
<line x1="345.5" y1="-209" x2="345.5" y2="1232" stroke="#121212" stroke-opacity="0.25"/>
<line x1="452.5" y1="-209" x2="452.5" y2="1232" stroke="#121212" stroke-opacity="0.25"/>
<line x1="559.5" y1="-209" x2="559.5" y2="1232" stroke="#121212" stroke-opacity="0.25"/>
<line x1="666.5" y1="-209" x2="666.5" y2="1232" stroke="#121212" stroke-opacity="0.25"/>
<line x1="773.5" y1="-209" x2="773.5" y2="1232" stroke="#121212" stroke-opacity="0.25"/>
<line x1="880.5" y1="-209" x2="880.5" y2="1232" stroke="#121212" stroke-opacity="0.25"/>
<line x1="987.5" y1="-209" x2="987.5" y2="1232" stroke="#121212" stroke-opacity="0.25"/>
<line x1="1094.5" y1="-209" x2="1094.5" y2="1232" stroke="#121212" stroke-opacity="0.25"/>
<line x1="1201.5" y1="-209" x2="1201.5" y2="1232" stroke="#121212" stroke-opacity="0.25"/>
<line x1="1308.5" y1="-209" x2="1308.5" y2="1232" stroke="#121212" stroke-opacity="0.25"/>
<line x1="1415.5" y1="-209" x2="1415.5" y2="1232" stroke="#121212" stroke-opacity="0.25"/>
</g>
<g opacity="0.2">
<line x1="2.18557e-08" y1="992.5" x2="1441" y2="992.5" stroke="#121212" stroke-opacity="0.25"/>
<line x1="2.18557e-08" y1="885.5" x2="1441" y2="885.5" stroke="#121212" stroke-opacity="0.25"/>
<line x1="2.18557e-08" y1="778.5" x2="1441" y2="778.5" stroke="#121212" stroke-opacity="0.25"/>
<line x1="2.18557e-08" y1="671.5" x2="1441" y2="671.5" stroke="#121212" stroke-opacity="0.25"/>
<line x1="2.18557e-08" y1="564.5" x2="1441" y2="564.5" stroke="#121212" stroke-opacity="0.25"/>
<line x1="2.18557e-08" y1="457.5" x2="1441" y2="457.5" stroke="#121212" stroke-opacity="0.25"/>
<line x1="2.18557e-08" y1="350.499" x2="1441" y2="350.499" stroke="#121212" stroke-opacity="0.25"/>
<line x1="2.18557e-08" y1="243.499" x2="1441" y2="243.499" stroke="#121212" stroke-opacity="0.25"/>
<line x1="2.18557e-08" y1="136.499" x2="1441" y2="136.499" stroke="#121212" stroke-opacity="0.25"/>
<line x1="2.18557e-08" y1="29.4993" x2="1441" y2="29.4993" stroke="#121212" stroke-opacity="0.25"/>
</g>
<rect width="1440" height="350" fill="url(#paint0_linear_4_2)"/>
<rect x="1440" y="1024" width="1440" height="350" transform="rotate(180 1440 1024)" fill="url(#paint1_linear_4_2)"/>
</g>
<defs>
<linearGradient id="paint0_linear_4_2" x1="760" y1="1.31641e-05" x2="765.881" y2="349.96" gradientUnits="userSpaceOnUse">
<stop stop-color="white"/>
<stop offset="1" stop-color="white" stop-opacity="0"/>
</linearGradient>
<linearGradient id="paint1_linear_4_2" x1="2200" y1="1024" x2="2205.88" y2="1373.96" gradientUnits="userSpaceOnUse">
<stop stop-color="white"/>
<stop offset="1" stop-color="white" stop-opacity="0"/>
</linearGradient>
<clipPath id="clip0_4_2">
<rect width="1440" height="1024" fill="white"/>
</clipPath>
</defs>
</svg>
